<svg width="25" height="25" viewBox="0 0 25 25" fill="none" xmlns="http://www.w3.org/2000/svg">
<g id="phone_in_talk">
<mask id="mask0_1_38" style="mask-type:alpha" maskUnits="userSpaceOnUse" x="0" y="0" width="25" height="25">
<rect id="Bounding box" width="25" height="25" fill="#D9D9D9"/>
</mask>
<g mask="url(#mask0_1_38)">
<path id="phone_in_talk_2" d="M19.7917 12.5C19.7917 10.4687 19.0842 8.74566 17.6693 7.33073C16.2543 5.9158 14.5312 5.20833 12.5 5.20833V3.125C13.8021 3.125 15.0217 3.3724 16.1589 3.86719C17.296 4.36198 18.2856 5.03038 19.1276 5.8724C19.9696 6.71441 20.638 7.70399 21.1328 8.84115C21.6276 9.9783 21.875 11.1979 21.875 12.5H19.7917ZM15.625 12.5C15.625 11.6319 15.3212 10.8941 14.7135 10.2865C14.1059 9.67882 13.3681 9.375 12.5 9.375V7.29167C13.941 7.29167 15.1693 7.79948 16.1849 8.8151C17.2005 9.83073 17.7083 11.059 17.7083 12.5H15.625ZM20.7812 21.875C18.6111 21.875 16.467 21.4019 14.349 20.4557C12.2309 19.5095 10.3038 18.1684 8.56771 16.4323C6.8316 14.6962 5.49045 12.7691 4.54427 10.651C3.59809 8.53299 3.125 6.38889 3.125 4.21875C3.125 3.90625 3.22917 3.64583 3.4375 3.4375C3.64583 3.22917 3.90625 3.125 4.21875 3.125H8.4375C8.68056 3.125 8.89757 3.20747 9.08854 3.3724C9.27951 3.53733 9.39236 3.73264 9.42708 3.95833L10.1042 7.60417C10.1389 7.88194 10.1302 8.11632 10.0781 8.30729C10.026 8.49826 9.93056 8.66319 9.79167 8.80208L7.26562 11.3542C7.61285 11.9965 8.02517 12.6172 8.5026 13.2161C8.98003 13.8151 9.50521 14.3924 10.0781 14.9479C10.6163 15.4861 11.1806 15.9852 11.7708 16.4453C12.3611 16.9054 12.9861 17.3264 13.6458 17.7083L16.0937 15.2604C16.25 15.1042 16.454 14.987 16.7057 14.9089C16.9575 14.8307 17.2049 14.809 17.4479 14.8438L21.0417 15.5729C21.2847 15.6424 21.4844 15.7682 21.6406 15.9505C21.7969 16.1328 21.875 16.3368 21.875 16.5625V20.7812C21.875 21.0938 21.7708 21.3542 21.5625 21.5625C21.3542 21.7708 21.0938 21.875 20.7812 21.875ZM6.27604 9.375L7.99479 7.65625L7.55208 5.20833H5.23438C5.32118 5.92014 5.44271 6.62326 5.59896 7.31771C5.75521 8.01215 5.9809 8.69792 6.27604 9.375ZM15.599 18.6979C16.276 18.9931 16.9661 19.2274 17.6693 19.401C18.3724 19.5747 19.0799 19.6875 19.7917 19.7396V17.4479L17.3438 16.9531L15.599 18.6979Z" fill="white"/>
</g>
</g>
</svg>
