<svg width="44" height="50" viewBox="0 0 44 50" fill="none" xmlns="http://www.w3.org/2000/svg">
<g id="solar:phone-bold">
<path id="Vector" d="M30.1801 26.8875L29.3507 27.8313C29.3507 27.8313 27.3765 30.073 21.9898 23.9521C16.6031 17.8313 18.5773 15.5896 18.5773 15.5896L19.0986 14.9938C20.3874 13.5313 20.5096 11.1813 19.3848 9.46462L17.088 5.95837C15.6952 3.83337 13.0064 3.55212 11.4114 5.36462L8.54941 8.61462C7.76009 9.51462 7.23144 10.6771 7.29525 11.9688C7.45931 15.275 8.76816 22.3855 16.0671 30.6813C23.809 39.4771 31.0734 39.8271 34.0429 39.5105C34.9835 39.4105 35.8002 38.8646 36.4583 38.1146L39.0468 35.173C40.7968 33.1875 40.3046 29.7813 38.0661 28.3917L34.5843 26.2271C33.115 25.3146 31.3286 25.5834 30.1801 26.8875Z" fill="#FF0000"/>
</g>
</svg>
